<?xml version="1.0" encoding="UTF-8"?>
<svg width="24px" height="24px" viewBox="0 0 24 24" stroke-width="1.5" fill="none" xmlns="http://www.w3.org/2000/svg" color="#6366f1">
    <path d="M12 8.5V3" stroke="#6366f1" stroke-width="1.5" stroke-linecap="round" stroke-linejoin="round"></path>
    <path d="M12 13a2 2 0 100-4 2 2 0 000 4z" stroke="#6366f1" stroke-width="1.5" stroke-linecap="round" stroke-linejoin="round"></path>
    <path d="M7 14c0-1.667 1.333-3 2-3" stroke="#6366f1" stroke-width="1.5" stroke-linecap="round" stroke-linejoin="round"></path>
    <path d="M17 14c0-1.667-1.333-3-2-3" stroke="#6366f1" stroke-width="1.5" stroke-linecap="round" stroke-linejoin="round"></path>
    <path d="M7 14v6M17 14v6" stroke="#6366f1" stroke-width="1.5" stroke-linecap="round" stroke-linejoin="round"></path>
    <path d="M7 20h10" stroke="#6366f1" stroke-width="1.5" stroke-linecap="round" stroke-linejoin="round"></path>
    <path d="M5.5 8a2.5 2.5 0 100-5 2.5 2.5 0 000 5z" stroke="#6366f1" stroke-width="1.5" stroke-linecap="round" stroke-linejoin="round"></path>
    <path d="M18.5 8a2.5 2.5 0 100-5 2.5 2.5 0 000 5z" stroke="#6366f1" stroke-width="1.5" stroke-linecap="round" stroke-linejoin="round"></path>
</svg>
